<svg width="64" height="64" viewBox="0 0 64 64" fill="none" xmlns="http://www.w3.org/2000/svg">
<path d="M25.8649 5.45995C-0.156551 8.89882 2.8692 8.4872 1.1687 8.75982C0.520072 8.86382 0.0490723 9.4162 0.0490723 10.0733V30.4732C0.0490723 31.2084 0.644197 31.8042 1.37982 31.8042C1.3802 31.8042 1.38057 31.8042 1.38095 31.8042C9.51045 31.7973 17.7177 31.5838 26.0399 31.5773C26.7729 31.5767 27.3693 30.9802 27.3693 30.2476V6.77895C27.3694 5.97395 26.6594 5.35457 25.8649 5.45995ZM25.4972 29.7059C17.5238 29.7207 9.69695 29.9161 1.92132 29.9313V10.5353C3.02657 10.3581 0.311699 10.7254 25.4972 7.39707V29.7059Z" fill="#EBEEE7
"/>
<path d="M26.0062 32.442C18.7924 32.6201 1.25495 32.4316 1.37982 32.4316C0.644447 32.4316 0.0490723 33.027 0.0490723 33.7625V54.154C0.0490723 54.8168 0.544322 55.3835 1.20107 55.4724C1.33282 55.4903 25.7162 58.7875 26.0382 58.7875C26.7708 58.7875 27.3692 58.1934 27.3692 57.4573V33.771C27.3693 33.012 26.7408 32.4231 26.0062 32.442ZM25.4971 56.8393C17.4049 55.7724 9.53907 54.7099 1.9212 53.6804V34.3158C9.67645 34.3306 17.5127 34.4958 25.4971 34.3158V56.8393Z" fill="#EBEEE7
"/>
<path d="M62.4314 0.0138238C57.2309 0.756324 52.1714 1.47007 47.1177 2.20845C46.6061 2.2832 46.2519 2.75857 46.3267 3.27007C46.4014 3.78157 46.8759 4.13582 47.3884 4.06107C52.2133 3.35607 56.9962 2.68045 62.0787 1.95545V29.4786C51.5726 29.4902 40.8177 29.6931 30.3232 29.7047V6.68207C32.1857 6.40507 35.1556 5.88257 43.0231 4.70582C43.5344 4.62932 43.8869 4.15282 43.8104 3.64157C43.7339 3.13032 43.2573 2.77757 42.7462 2.8542C34.8629 4.03332 32.0677 4.52982 29.5858 4.89882C28.9389 4.99495 28.4509 5.56057 28.4509 6.21457V30.2464C28.4509 30.9814 29.0453 31.5771 29.7809 31.5771C40.0888 31.5771 51.7838 31.3553 62.6222 31.3502C63.3548 31.3498 63.9509 30.7532 63.9509 30.0204V1.33045C63.9509 0.522199 63.2334 -0.100551 62.4314 0.0138238Z" fill="#EBEEE7
"/>
<path d="M63.0148 48.2117C63.5318 48.2117 63.9509 47.7926 63.9509 47.2756V33.9889C63.9509 33.2554 63.3542 32.6587 62.6207 32.6587H29.7812C29.0477 32.6587 28.4509 33.2554 28.4509 33.9889V58.0187C28.4509 58.6769 28.9422 59.2434 29.5938 59.3361C40.4083 60.8759 51.5782 62.2269 62.4088 63.9823C63.2157 64.1137 63.951 63.4902 63.951 62.6698V51.6439C63.951 51.1269 63.5319 50.7078 63.0149 50.7078C62.4979 50.7078 62.0788 51.1269 62.0788 51.6439V62.0326C51.5702 60.3464 40.8058 59.0344 30.3233 57.5486V34.5308H62.0787V47.2756C62.0787 47.7926 62.4978 48.2117 63.0148 48.2117Z" fill="#EBEEE7
"/>
</svg>
