<svg width="64" height="64" viewBox="0 0 64 64" fill="none" xmlns="http://www.w3.org/2000/svg">
<path d="M36.6579 32.0448L62.9611 5.85615C64.2221 4.60644 64.2221 2.58337 62.9611 1.33685C61.7032 0.0871394 59.6601 0.0871394 58.4022 1.33685L32.1217 27.5031L5.59802 0.946845C4.34016 -0.315615 2.29706 -0.315615 1.0392 0.946845C-0.218666 2.21249 -0.218666 4.26107 1.0392 5.52353L27.5435 32.0607L0.943397 58.5434C-0.314466 59.7931 -0.314466 61.8162 0.943397 63.0627C2.20126 64.3124 4.24436 64.3124 5.50222 63.0627L32.0797 36.6023L58.4978 63.0532C59.7556 64.3156 61.7987 64.3156 63.0566 63.0532C64.3145 61.7875 64.3145 59.7389 63.0566 58.4765L36.6579 32.0448Z" fill="#858A88"/>
</svg>
