<svg width="32" height="32" viewBox="0 0 32 32" fill="none" xmlns="http://www.w3.org/2000/svg">
<path d="M32 26.1176V5.88235C32 5.50769 31.8558 5.16698 31.6214 4.90961C31.6179 4.90541 31.6139 4.90143 31.6102 4.89723C31.3457 4.61328 30.9698 4.43439 30.552 4.43439H1.44796C1.03073 4.43439 0.655276 4.61285 0.390805 4.89614C0.386751 4.90078 0.382335 4.90519 0.378353 4.90983C0.144145 5.1672 0 5.50784 0 5.88235V26.1176C0 26.4924 0.14429 26.8332 0.378715 27.0906C0.3819 27.0944 0.38552 27.098 0.388851 27.1018C0.653394 27.3863 1.02972 27.5656 1.44796 27.5656H30.552C30.9698 27.5656 31.3457 27.3867 31.6102 27.1028C31.6139 27.0986 31.6179 27.0947 31.6214 27.0904C31.8558 26.833 32 26.4923 32 26.1176ZM7.09792 20.2034C6.80956 19.9264 6.3512 19.9358 6.07428 20.2242L1.44796 25.0423V6.95768L10.1302 16L7.78491 18.4426C7.50798 18.731 7.51732 19.1894 7.80576 19.4663C7.94606 19.601 8.1267 19.6681 8.30704 19.6681C8.49723 19.6681 8.6872 19.5936 8.82939 19.4455L11.134 17.0454L14.4749 20.5249C14.8795 20.9462 15.4211 21.1783 16 21.1783C16.5789 21.1783 17.1205 20.9462 17.5251 20.5249L20.866 17.0454L29.5772 26.1176H2.42281L7.1187 21.227C7.39562 20.9386 7.38628 20.4803 7.09792 20.2034ZM16.4807 19.522C16.3517 19.6563 16.181 19.7303 16 19.7303C15.819 19.7303 15.6484 19.6563 15.5193 19.522L2.42281 5.88235H29.5771L16.4807 19.522ZM21.8698 16L30.552 6.95768L30.5522 25.0425L21.8698 16Z" fill="#858A88"/>
</svg>
