<svg width="32" height="32" viewBox="0 0 32 32" fill="none" xmlns="http://www.w3.org/2000/svg">
<g clip-path="url(#clip0)">
<path d="M31.7579 14.6828L25.1501 8.93217C24.9605 8.76717 24.673 8.78711 24.5079 8.97673C24.3428 9.16636 24.3628 9.45392 24.5524 9.61898L30.7412 15.005H27.9354L16.4581 5.01643C16.197 4.78924 15.8033 4.78918 15.5422 5.01643L4.06492 15.005H1.25905L5.53186 11.2864C5.53192 11.2863 5.53198 11.2862 5.53204 11.2862L9.56247 7.77855C9.5626 7.77848 9.56266 7.77836 9.56272 7.7783L16.0001 2.17593L22.9109 8.19036C23.1006 8.35542 23.3881 8.33548 23.5532 8.1458C23.7183 7.95617 23.6983 7.66861 23.5086 7.50355L16.458 1.3675C16.197 1.14031 15.8033 1.14025 15.5422 1.3675L10.555 5.7078V4.41949C10.555 4.02674 10.2354 3.70718 9.84266 3.70718H4.49323C4.10049 3.70718 3.78092 4.02674 3.78092 4.41949V5.75949C3.78092 6.15224 4.10049 6.4718 4.49323 6.4718H4.77798V10.7355L0.242368 14.6828C0.0190556 14.8772 -0.0581317 15.1818 0.0455556 15.4591C0.149305 15.7363 0.407617 15.9155 0.703617 15.9155H3.7788V24.0037C3.7788 24.2551 3.98261 24.459 4.23405 24.459C4.48548 24.459 4.6893 24.2551 4.6893 24.0037V15.6686L16.0001 5.82486L27.311 15.6687V29.6537C27.311 29.7853 27.2039 29.8924 27.0723 29.8924H20.2905V18.3982C20.2905 17.7932 19.7983 17.3011 19.1934 17.3011H13.3732C12.7682 17.3011 12.2761 17.7932 12.2761 18.3982V29.8923H4.92805C4.79642 29.8923 4.6893 29.7852 4.6893 29.6536V26.1964C4.6893 25.9449 4.48548 25.7411 4.23405 25.7411C3.98261 25.7411 3.7788 25.9449 3.7788 26.1964V29.6536C3.7788 30.2873 4.2943 30.8028 4.92798 30.8028H27.0722C27.7059 30.8028 28.2214 30.2873 28.2214 29.6536V15.9154H31.2966C31.5926 15.9154 31.8509 15.7363 31.9546 15.459C32.0584 15.1818 31.9812 14.8772 31.7579 14.6828ZM8.80841 7.22786L5.68842 9.94317V6.4718H8.80841V7.22786ZM4.69136 5.56136V4.61762H9.6446V5.56136H9.26366H5.23323H4.69136ZM19.38 29.8924H13.1865V18.3982C13.1865 18.2953 13.2703 18.2116 13.3732 18.2116H19.1934C19.2963 18.2116 19.38 18.2953 19.38 18.3982V29.8924V29.8924Z" fill="#858A88"/>
</g>
<defs>
<clipPath id="clip0">
<rect width="32" height="32" fill="white"/>
</clipPath>
</defs>
</svg>
