<svg width="12" height="12" viewBox="0 0 12 12" fill="none" xmlns="http://www.w3.org/2000/svg">
<path d="M6.00003 0.919861C3.19864 0.919861 0.940796 3.19861 0.940796 5.9791C0.940796 8.75959 3.21954 11.0592 6.00003 11.0592C8.80142 11.0592 11.0802 8.78049 11.0802 6C11.0802 3.21951 8.80142 0.919861 6.00003 0.919861ZM5.79097 10.6411C3.38679 10.5366 1.46344 8.59234 1.35891 6.20906H5.79097V10.6411ZM5.79097 5.77004H1.35891C1.46344 3.38676 3.38679 1.46342 5.79097 1.33798V5.77004ZM6.20909 1.33798C8.61327 1.46342 10.5366 3.38676 10.6411 5.79094H6.20909V1.33798ZM6.20909 10.6411V6.20906H10.6411C10.5366 8.59234 8.61327 10.5366 6.20909 10.6411Z" fill="#AF8108"/>
<path d="M6 0C2.69686 0 0 2.67596 0 6C0 9.30314 2.69686 12 6 12C9.30314 12 12 9.30314 12 6C12 2.69686 9.30314 0 6 0ZM6 11.5819C2.92683 11.5819 0.418118 9.07317 0.418118 6C0.418118 2.90592 2.92683 0.418118 6 0.418118C9.07317 0.418118 11.5819 2.92683 11.5819 6C11.5819 9.07317 9.07317 11.5819 6 11.5819Z" fill="#AF8108"/>
</svg>
