<svg width="32" height="32" viewBox="0 0 32 32" fill="none" xmlns="http://www.w3.org/2000/svg">
<path d="M28.5 3.35336H3.5C1.57012 3.35336 0 4.92349 0 6.85336V20.8534C0 22.6136 1.30606 24.0744 3 24.3177V27.6462C3 28.0521 3.24231 28.4147 3.61731 28.5701C3.74181 28.6217 3.872 28.6467 4.00106 28.6467C4.26075 28.6467 4.51538 28.5451 4.70713 28.3534L8.70712 24.3534H28.5C30.4299 24.3534 32 22.7832 32 20.8534V6.85336C32 4.92343 30.4299 3.35336 28.5 3.35336ZM31 20.8534C31 22.2319 29.8785 23.3534 28.5 23.3534H8.5C8.36738 23.3534 8.24019 23.4061 8.14644 23.4998L4 27.6459V23.8534C4 23.5772 3.77613 23.3534 3.5 23.3534C2.1215 23.3534 1 22.2319 1 20.8534V6.85336C1 5.47486 2.1215 4.35336 3.5 4.35336H28.5C29.8785 4.35336 31 5.47486 31 6.85336V20.8534Z" fill="#858A88"/>
<path d="M10.1636 12.3836C9.90319 12.4754 9.7665 12.761 9.85837 13.0214C9.95231 13.2879 10 13.5677 10 13.8534C10 15.2319 8.8785 16.3534 7.5 16.3534C6.1215 16.3534 5 15.2319 5 13.8534C5 12.4749 6.1215 11.3534 7.5 11.3534C7.78625 11.3534 8.06675 11.4012 8.33362 11.4956C8.59387 11.5876 8.87962 11.4512 8.97169 11.1909C9.06375 10.9305 8.92731 10.6448 8.667 10.5527C8.29275 10.4204 7.90012 10.3534 7.5 10.3534C5.57012 10.3534 4 11.9235 4 13.8534C4 15.7832 5.57012 17.3534 7.5 17.3534C9.42988 17.3534 11 15.7832 11 13.8534C11 13.4542 10.9332 13.0624 10.8014 12.6888C10.7096 12.4284 10.4241 12.2917 10.1636 12.3836Z" fill="#858A88"/>
<path d="M18.6636 12.3836C18.4032 12.4754 18.2665 12.761 18.3584 13.0214C18.4523 13.2879 18.5 13.5677 18.5 13.8534C18.5 15.2319 17.3785 16.3534 16 16.3534C14.6215 16.3534 13.5 15.2319 13.5 13.8534C13.5 12.4749 14.6215 11.3534 16 11.3534C16.2862 11.3534 16.5668 11.4012 16.8336 11.4956C17.0939 11.5876 17.3796 11.4512 17.4717 11.1909C17.5637 10.9305 17.4273 10.6448 17.167 10.5527C16.7927 10.4204 16.4001 10.3534 16 10.3534C14.0701 10.3534 12.5 11.9235 12.5 13.8534C12.5 15.7832 14.0701 17.3534 16 17.3534C17.9299 17.3534 19.5 15.7832 19.5 13.8534C19.5 13.4542 19.4332 13.0624 19.3014 12.6888C19.2096 12.4284 18.924 12.2917 18.6636 12.3836Z" fill="#858A88"/>
<path d="M27.1636 12.3836C26.9032 12.4754 26.7665 12.761 26.8584 13.0214C26.9523 13.2879 27 13.5677 27 13.8534C27 15.2319 25.8785 16.3534 24.5 16.3534C23.1215 16.3534 22 15.2319 22 13.8534C22 12.4749 23.1215 11.3534 24.5 11.3534C24.7862 11.3534 25.0668 11.4012 25.3336 11.4956C25.5938 11.5876 25.8797 11.4512 25.9717 11.1909C26.0637 10.9305 25.9273 10.6448 25.667 10.5527C25.2927 10.4204 24.9001 10.3534 24.5 10.3534C22.5701 10.3534 21 11.9235 21 13.8534C21 15.7832 22.5701 17.3534 24.5 17.3534C26.4299 17.3534 28 15.7832 28 13.8534C28 13.4542 27.9332 13.0624 27.8014 12.6888C27.7096 12.4284 27.4241 12.2917 27.1636 12.3836Z" fill="#858A88"/>
</svg>
