<svg width="32" height="32" viewBox="0 0 32 32" fill="none" xmlns="http://www.w3.org/2000/svg">
<path d="M29.9375 28.1696H29.0382V1.14425C29.0393 1.00776 28.9861 0.876442 28.8904 0.779098C28.7947 0.681755 28.6644 0.626337 28.5279 0.625H3.66944C3.53295 0.626337 3.40256 0.681753 3.30687 0.779095C3.21118 0.876436 3.158 1.00776 3.159 1.14425V28.1696H2.0625C1.92994 28.1698 1.80285 28.2225 1.70911 28.3162C1.61538 28.41 1.56265 28.5371 1.5625 28.6696V30.875C1.56265 31.0076 1.61538 31.1347 1.70911 31.2284C1.80285 31.3221 1.92994 31.3749 2.0625 31.375H29.9375C30.0701 31.3749 30.1972 31.3221 30.2909 31.2284C30.3846 31.1347 30.4374 31.0076 30.4375 30.875V28.6696C30.4374 28.5371 30.3846 28.41 30.2909 28.3162C30.1972 28.2225 30.0701 28.1698 29.9375 28.1696ZM16.1812 28.1696L16.3153 15.7275H28.2882V28.1696H16.1812ZM28.2882 14.9775H16.3231L16.4696 1.375H28.2884L28.2882 14.9775ZM15.7196 1.375L15.573 14.9775H3.909V1.375H15.7196ZM3.909 15.7275H15.5653L15.4312 28.1696H3.909V15.7275ZM29.6875 30.625H2.3125V28.9196H29.6875V30.625Z" fill="#1B1B15"/>
<path d="M6.68591 7.5636C6.76746 7.62052 6.86829 7.64271 6.96621 7.62529C7.06412 7.60788 7.15111 7.55227 7.20803 7.47072L10.058 3.38903C10.115 3.30748 10.1372 3.20665 10.1198 3.10872C10.1024 3.01079 10.0468 2.92379 9.96522 2.86685C9.88367 2.80991 9.78284 2.7877 9.68491 2.8051C9.58698 2.82251 9.49997 2.87811 9.44304 2.95966L6.59303 7.04141C6.56484 7.08179 6.54488 7.12734 6.53429 7.17544C6.52369 7.22354 6.52268 7.27325 6.53131 7.32174C6.53993 7.37023 6.55802 7.41655 6.58455 7.45805C6.61108 7.49955 6.64552 7.53541 6.68591 7.5636Z" fill="#1B1B15"/>
<path d="M8.95965 8.00862C9.00123 8.03502 9.0476 8.05298 9.09612 8.06145C9.14463 8.06993 9.19435 8.06877 9.24241 8.05803C9.29048 8.04729 9.33596 8.02719 9.37626 7.99888C9.41656 7.97056 9.45088 7.93458 9.47728 7.893L11.0495 5.41613C11.1021 5.33217 11.1194 5.23082 11.0975 5.13419C11.0756 5.03757 11.0164 4.95354 10.9327 4.90044C10.8491 4.84735 10.7478 4.82951 10.6511 4.85082C10.5543 4.87214 10.4699 4.93087 10.4163 5.01419L8.84409 7.491C8.81768 7.53257 8.79973 7.57894 8.79125 7.62746C8.78277 7.67597 8.78392 7.72568 8.79465 7.77375C8.80539 7.82182 8.82548 7.8673 8.85379 7.9076C8.8821 7.9479 8.91807 7.98223 8.95965 8.00862Z" fill="#1B1B15"/>
<path d="M22.9848 18.661C22.9444 18.6328 22.8989 18.6129 22.8508 18.6023C22.8027 18.5917 22.7529 18.5907 22.7044 18.5993C22.656 18.6079 22.6096 18.626 22.5681 18.6525C22.5266 18.6791 22.4908 18.7135 22.4626 18.7539L19.613 22.8356C19.5843 22.8759 19.5639 22.9216 19.5529 22.9699C19.5419 23.0182 19.5406 23.0682 19.5491 23.1169C19.5575 23.1657 19.5756 23.2124 19.6021 23.2542C19.6287 23.2959 19.6633 23.3321 19.7039 23.3604C19.7445 23.3888 19.7903 23.4088 19.8387 23.4193C19.8871 23.4299 19.9371 23.4307 19.9858 23.4218C20.0345 23.413 20.081 23.3945 20.1226 23.3676C20.1641 23.3407 20.1999 23.3058 20.2279 23.2649L23.0776 19.1832C23.1058 19.1428 23.1258 19.0973 23.1363 19.0492C23.1469 19.0011 23.148 18.9514 23.1393 18.9029C23.1307 18.8544 23.1126 18.8081 23.0861 18.7666C23.0596 18.7251 23.0252 18.6892 22.9848 18.661Z" fill="#1B1B15"/>
<path d="M23.9538 20.6927C23.8698 20.6394 23.7681 20.6216 23.6711 20.6433C23.574 20.665 23.4895 20.7243 23.4362 20.8083L21.8639 23.2851C21.8375 23.3267 21.8195 23.3731 21.811 23.4216C21.8025 23.4701 21.8037 23.5198 21.8144 23.5679C21.8251 23.616 21.8452 23.6615 21.8735 23.7018C21.9018 23.7421 21.9378 23.7764 21.9794 23.8029C22.0209 23.8293 22.0673 23.8472 22.1158 23.8557C22.1643 23.8642 22.2141 23.8631 22.2621 23.8524C22.3102 23.8417 22.3557 23.8216 22.396 23.7933C22.4363 23.765 22.4707 23.729 22.4971 23.6874L24.0694 21.2105C24.0958 21.169 24.1138 21.1226 24.1223 21.074C24.1308 21.0255 24.1296 20.9758 24.1189 20.9277C24.1082 20.8796 24.0881 20.8341 24.0597 20.7937C24.0314 20.7534 23.9954 20.7191 23.9538 20.6927Z" fill="#1B1B15"/>
</svg>