<svg width="312" height="32" viewBox="0 0 312 32" fill="none" xmlns="http://www.w3.org/2000/svg">
<path d="M309.938 28.1696H309.038V1.14425C309.039 1.00776 308.986 0.876442 308.89 0.779098C308.795 0.681755 308.664 0.626337 308.528 0.625H283.669C283.533 0.626337 283.403 0.681753 283.307 0.779095C283.211 0.876436 283.158 1.00776 283.159 1.14425V28.1696H282.062C281.93 28.1698 281.803 28.2225 281.709 28.3162C281.615 28.41 281.563 28.5371 281.562 28.6696V30.875C281.563 31.0076 281.615 31.1347 281.709 31.2284C281.803 31.3221 281.93 31.3749 282.062 31.375H309.938C310.07 31.3749 310.197 31.3221 310.291 31.2284C310.385 31.1347 310.437 31.0076 310.438 30.875V28.6696C310.437 28.5371 310.385 28.41 310.291 28.3162C310.197 28.2225 310.07 28.1698 309.938 28.1696ZM296.181 28.1696L296.315 15.7275H308.288V28.1696H296.181ZM308.288 14.9775H296.323L296.47 1.375H308.288L308.288 14.9775ZM295.72 1.375L295.573 14.9775H283.909V1.375H295.72ZM283.909 15.7275H295.565L295.431 28.1696H283.909V15.7275ZM309.688 30.625H282.312V28.9196H309.688V30.625Z" fill="#C7BEBD"/>
<path d="M286.686 7.56357C286.767 7.62049 286.868 7.64268 286.966 7.62526C287.064 7.60784 287.151 7.55224 287.208 7.47069L290.058 3.389C290.115 3.30745 290.137 3.20662 290.12 3.10869C290.102 3.01076 290.047 2.92376 289.965 2.86682C289.884 2.80988 289.783 2.78767 289.685 2.80507C289.587 2.82248 289.5 2.87808 289.443 2.95963L286.593 7.04138C286.565 7.08176 286.545 7.12731 286.534 7.17541C286.524 7.2235 286.523 7.27322 286.531 7.32171C286.54 7.3702 286.558 7.41652 286.585 7.45802C286.611 7.49952 286.646 7.53538 286.686 7.56357Z" fill="#C7BEBD"/>
<path d="M288.96 8.00862C289.001 8.03502 289.048 8.05298 289.096 8.06145C289.145 8.06993 289.194 8.06877 289.242 8.05803C289.29 8.04729 289.336 8.02719 289.376 7.99888C289.417 7.97056 289.451 7.93458 289.477 7.893L291.05 5.41613C291.102 5.33217 291.119 5.23082 291.097 5.13419C291.076 5.03757 291.016 4.95354 290.933 4.90044C290.849 4.84735 290.748 4.82951 290.651 4.85082C290.554 4.87214 290.47 4.93087 290.416 5.01419L288.844 7.491C288.818 7.53257 288.8 7.57894 288.791 7.62746C288.783 7.67597 288.784 7.72568 288.795 7.77375C288.805 7.82182 288.825 7.8673 288.854 7.9076C288.882 7.9479 288.918 7.98223 288.96 8.00862Z" fill="#C7BEBD"/>
<path d="M302.985 18.661C302.944 18.6328 302.899 18.6128 302.851 18.6022C302.803 18.5917 302.753 18.5906 302.704 18.5993C302.656 18.6079 302.61 18.626 302.568 18.6525C302.527 18.679 302.491 18.7135 302.463 18.7539L299.613 22.8356C299.584 22.8759 299.564 22.9216 299.553 22.9698C299.542 23.0181 299.541 23.0681 299.549 23.1169C299.558 23.1657 299.576 23.2123 299.602 23.2541C299.629 23.2959 299.663 23.332 299.704 23.3604C299.745 23.3887 299.79 23.4087 299.839 23.4193C299.887 23.4298 299.937 23.4307 299.986 23.4218C300.035 23.4129 300.081 23.3945 300.123 23.3676C300.164 23.3406 300.2 23.3057 300.228 23.2649L303.078 19.1832C303.106 19.1428 303.126 19.0973 303.136 19.0492C303.147 19.0011 303.148 18.9514 303.139 18.9029C303.131 18.8544 303.113 18.8081 303.086 18.7666C303.06 18.7251 303.025 18.6892 302.985 18.661Z" fill="#C7BEBD"/>
<path d="M303.954 20.6927C303.87 20.6394 303.768 20.6217 303.671 20.6434C303.574 20.665 303.49 20.7244 303.436 20.8084L301.864 23.2852C301.838 23.3267 301.82 23.3731 301.811 23.4216C301.803 23.4702 301.804 23.5199 301.814 23.568C301.825 23.616 301.845 23.6615 301.874 23.7018C301.902 23.7422 301.938 23.7765 301.979 23.8029C302.021 23.8293 302.067 23.8473 302.116 23.8558C302.164 23.8643 302.214 23.8632 302.262 23.8524C302.31 23.8417 302.356 23.8216 302.396 23.7933C302.436 23.765 302.471 23.7291 302.497 23.6875L304.069 21.2106C304.096 21.169 304.114 21.1226 304.122 21.0741C304.131 21.0256 304.13 20.9758 304.119 20.9277C304.108 20.8796 304.088 20.8341 304.06 20.7938C304.031 20.7535 303.995 20.7191 303.954 20.6927Z" fill="#C7BEBD"/>
<path d="M132.932 2.72988C119.922 4.44932 121.435 4.24351 120.584 4.37982C120.26 4.43182 120.025 4.70801 120.025 5.03657V15.2365C120.025 15.6041 120.322 15.902 120.69 15.902C120.69 15.902 120.69 15.902 120.69 15.902C124.755 15.8986 128.859 15.7918 133.02 15.7886C133.386 15.7883 133.685 15.49 133.685 15.1237V3.38938C133.685 2.98688 133.33 2.6772 132.932 2.72988ZM132.749 14.8529C128.762 14.8603 124.848 14.9579 120.961 14.9656V5.26757C121.513 5.17895 120.156 5.36263 132.749 3.69845V14.8529Z" fill="#C7BEBD"/>
<path d="M133.003 16.221C129.396 16.3101 120.627 16.2158 120.69 16.2158C120.322 16.2158 120.025 16.5135 120.025 16.8813V27.077C120.025 27.4084 120.272 27.6918 120.601 27.7362C120.666 27.7451 132.858 29.3938 133.019 29.3938C133.385 29.3938 133.685 29.0967 133.685 28.7286V16.8855C133.685 16.506 133.37 16.2116 133.003 16.221ZM132.749 28.4196C128.702 27.8862 124.77 27.3549 120.961 26.8402V17.1579C124.838 17.1653 128.756 17.2479 132.749 17.1579V28.4196Z" fill="#C7BEBD"/>
<path d="M151.216 0.00715603C148.615 0.378406 146.086 0.735281 143.559 1.10447C143.303 1.14184 143.126 1.37953 143.163 1.63528C143.201 1.89103 143.438 2.06816 143.694 2.03078C146.107 1.67828 148.498 1.34047 151.039 0.977969V14.7395C145.786 14.7453 140.409 14.8468 135.162 14.8526V3.34128C136.093 3.20278 137.578 2.94153 141.512 2.35316C141.767 2.31491 141.943 2.07666 141.905 1.82103C141.867 1.56541 141.629 1.38903 141.373 1.42734C137.431 2.01691 136.034 2.26516 134.793 2.44966C134.469 2.49772 134.225 2.78053 134.225 3.10753V15.1235C134.225 15.491 134.523 15.7888 134.89 15.7888C140.044 15.7888 145.892 15.6779 151.311 15.6753C151.677 15.6752 151.975 15.3768 151.975 15.0105V0.665469C151.975 0.261344 151.617 -0.0500315 151.216 0.00715603Z" fill="#C7BEBD"/>
<path d="M151.507 24.1058C151.766 24.1058 151.975 23.8963 151.975 23.6378V16.9945C151.975 16.6277 151.677 16.3293 151.31 16.3293H134.891C134.524 16.3293 134.225 16.6277 134.225 16.9945V29.0093C134.225 29.3385 134.471 29.6217 134.797 29.668C140.204 30.438 145.789 31.1135 151.204 31.9912C151.608 32.0568 151.976 31.7451 151.976 31.3349V25.822C151.976 25.5635 151.766 25.3539 151.507 25.3539C151.249 25.3539 151.039 25.5635 151.039 25.822V31.0163C145.785 30.1732 140.403 29.5172 135.162 28.7743V17.2654H151.039V23.6378C151.039 23.8963 151.249 24.1058 151.507 24.1058Z" fill="#C7BEBD"/>
<path d="M229.214 30.9844H207.214C206.662 30.9844 206.214 30.5367 206.214 29.9844V16.9843C206.214 16.7084 206.438 16.4844 206.714 16.4844C206.99 16.4844 207.214 16.7084 207.214 16.9843V29.9844H229.214V1.98431H207.214V7.63934C207.214 7.91565 206.99 8.1394 206.714 8.1394C206.438 8.1394 206.214 7.91565 206.214 7.63934V1.98431C206.214 1.43207 206.662 0.984375 207.214 0.984375H229.214C229.767 0.984375 230.214 1.43207 230.214 1.98431V29.9844C230.214 30.5367 229.767 30.9844 229.214 30.9844ZM227.714 28.9845H208.714C208.438 28.9845 208.214 28.7606 208.214 28.4842V21.9844C208.214 21.7082 208.438 21.4845 208.714 21.4845H227.714C227.99 21.4845 228.214 21.7082 228.214 21.9844V28.4842C228.214 28.7606 227.99 28.9845 227.714 28.9845ZM209.214 27.9844H227.214V22.4844H209.214V27.9844ZM227.714 20.4844H208.714C208.438 20.4844 208.214 20.2606 208.214 19.9843V16.9843C208.214 16.7084 208.438 16.4844 208.714 16.4844C208.991 16.4844 209.214 16.7084 209.214 16.9843V19.4844H227.214V3.98437H208.714C208.438 3.98437 208.214 3.76044 208.214 3.4845C208.214 3.20819 208.438 2.98425 208.714 2.98425H227.714C227.99 2.98425 228.214 3.20819 228.214 3.4845V19.9843C228.214 20.2606 227.99 20.4844 227.714 20.4844Z" fill="#C7BEBD"/>
<path d="M227.714 20.4844H208.714C208.438 20.4844 208.214 20.2606 208.214 19.9843V16.9843C208.214 16.7084 208.438 16.4845 208.714 16.4845C208.991 16.4845 209.214 16.7084 209.214 16.9843V19.4845H227.214V3.98441H208.714C208.438 3.98441 208.214 3.76047 208.214 3.48453C208.214 3.20822 208.438 2.98428 208.714 2.98428H227.714C227.99 2.98428 228.214 3.20822 228.214 3.48453V19.9843C228.214 20.2606 227.99 20.4844 227.714 20.4844Z" fill="#C7BEBD"/>
<path d="M227.714 28.9846H208.714C208.438 28.9846 208.214 28.7606 208.214 28.4843V21.9844C208.214 21.7083 208.438 21.4845 208.714 21.4845H227.714C227.99 21.4845 228.214 21.7083 228.214 21.9844V28.4843C228.214 28.7606 227.99 28.9846 227.714 28.9846ZM209.214 27.9844H227.214V22.4845H209.214V27.9844Z" fill="#C7BEBD"/>
<path d="M227.714 20.4844H208.714C208.438 20.4844 208.214 20.2606 208.214 19.9843V16.9843C208.214 16.7084 208.438 16.4845 208.714 16.4845C208.991 16.4845 209.214 16.7084 209.214 16.9843V19.4845H227.214V3.98441H208.714C208.438 3.98441 208.214 3.76047 208.214 3.48453C208.214 3.20822 208.438 2.98428 208.714 2.98428H227.714C227.99 2.98428 228.214 3.20822 228.214 3.48453V19.9843C228.214 20.2606 227.99 20.4844 227.714 20.4844Z" fill="#C7BEBD"/>
<path d="M221.214 17.4844H202.214C202.043 17.4842 201.883 17.3958 201.791 17.25C201.7 17.1046 201.69 16.9223 201.764 16.7674L208.264 3.26755C208.348 3.09451 208.522 2.98465 208.714 2.98428H227.714C227.886 2.98465 228.046 3.07291 228.137 3.21848C228.229 3.36441 228.239 3.54642 228.164 3.70151L221.664 17.2013C221.581 17.3742 221.406 17.4842 221.214 17.4844ZM203.01 16.4845H220.9L226.919 3.98441H209.028L203.01 16.4845Z" fill="#C7BEBD"/>
<path d="M219.958 15.4843H205.397C205.225 15.4843 205.065 15.3957 204.974 15.2501C204.883 15.1046 204.872 14.9222 204.947 14.7675L209.521 5.2674C209.605 5.09436 209.78 4.9845 209.971 4.98431H224.532C224.704 4.9845 224.863 5.07294 224.955 5.21869C225.046 5.36426 225.056 5.54645 224.982 5.70136L220.407 15.2014C220.324 15.3743 220.149 15.4843 219.958 15.4843ZM206.193 14.4844H219.643L223.735 5.98425H210.285L206.193 14.4844Z" fill="#C7BEBD"/>
<path d="M227.714 28.9846H208.714C208.438 28.9846 208.214 28.7606 208.214 28.4843V21.9844C208.214 21.7083 208.438 21.4845 208.714 21.4845H227.714C227.99 21.4845 228.214 21.7083 228.214 21.9844V28.4843C228.214 28.7606 227.99 28.9846 227.714 28.9846ZM209.214 27.9844H227.214V22.4845H209.214V27.9844Z" fill="#C7BEBD"/>
<path d="M227.714 13.4842C227.582 13.4842 227.455 13.4317 227.361 13.3377L224.361 10.3377C224.171 10.1416 224.174 9.8298 224.367 9.63699C224.56 9.444 224.872 9.44125 225.068 9.63076L228.068 12.6308C228.211 12.7738 228.254 12.9889 228.176 13.1757C228.099 13.3625 227.917 13.4842 227.714 13.4842Z" fill="#C7BEBD"/>
<path d="M215.214 20.4844C215.082 20.4844 214.955 20.4317 214.861 20.3379L211.861 17.3379C211.671 17.1416 211.674 16.83 211.867 16.637C212.06 16.4442 212.372 16.4414 212.568 16.6309L215.568 19.6309C215.711 19.7739 215.754 19.9889 215.676 20.1757C215.599 20.3624 215.417 20.4844 215.214 20.4844Z" fill="#C7BEBD"/>
<path d="M56.4404 0.183522C56.3242 0.0672717 56.1629 0.000396729 55.9985 0.000396729C55.8342 0.000396729 55.6729 0.0672717 55.5567 0.183522C55.4405 0.299772 55.3735 0.461022 55.3735 0.625397C55.3735 0.789772 55.4404 0.951022 55.5567 1.06727C55.6729 1.18352 55.8342 1.2504 55.9985 1.2504C56.1629 1.2504 56.3242 1.18352 56.4404 1.06727C56.5566 0.951022 56.6236 0.789772 56.6236 0.625397C56.6236 0.461022 56.5567 0.299772 56.4404 0.183522Z" fill="#C7BEBD"/>
<path d="M52.2643 8.59517C52.1474 8.47892 51.9868 8.41205 51.8224 8.41205C51.658 8.41205 51.4968 8.47892 51.3799 8.59517C51.2637 8.71142 51.1974 8.87267 51.1974 9.03705C51.1974 9.20142 51.2637 9.36267 51.3799 9.47955C51.4968 9.5958 51.6574 9.66205 51.8224 9.66205C51.9868 9.66205 52.148 9.5958 52.2643 9.47955C52.3805 9.36267 52.4474 9.20142 52.4474 9.03705C52.4474 8.87267 52.3806 8.71142 52.2643 8.59517Z" fill="#C7BEBD"/>
<path d="M50.5376 10.3219C50.2935 10.0778 49.8979 10.0778 49.6537 10.3219L44.0836 15.8921C43.8395 16.1361 43.8395 16.5319 44.0836 16.776C44.2056 16.898 44.3656 16.9591 44.5255 16.9591C44.6854 16.9591 44.8454 16.898 44.9674 16.776L50.5376 11.2058C50.7817 10.9618 50.7817 10.566 50.5376 10.3219Z" fill="#C7BEBD"/>
<path d="M69.5001 29.4958H71.375C71.7201 29.4958 72 29.2159 72 28.8708V4.12533C72 4.11965 71.9993 4.11408 71.9991 4.1084V0.625397C71.9991 0.280209 71.7192 0.000396729 71.3741 0.000396729H59.186C58.8409 0.000396729 58.561 0.280209 58.561 0.625397C58.561 0.970584 58.8409 1.2504 59.186 1.2504H70.7491V3.50033H41.2499V1.2504H53.0386C53.3837 1.2504 53.6636 0.970584 53.6636 0.625397C53.6636 0.280209 53.3837 0.000396729 53.0386 0.000396729H40.625C40.2799 0.000396729 40 0.280209 40 0.625397V4.12527V28.8707C40 29.2158 40.2799 29.4957 40.625 29.4957H61.7503V30.6403C61.7503 30.6771 61.7522 30.7135 61.7551 30.7496H49.0371C48.6919 30.7496 48.4121 31.0295 48.4121 31.3746C48.4121 31.7198 48.6919 31.9996 49.0371 31.9996H71.375C71.7201 31.9996 72 31.7198 72 31.3746C72 31.0295 71.7201 30.7496 71.375 30.7496H69.4953C69.4981 30.7135 69.5001 30.6771 69.5001 30.6403V29.4958ZM55.3754 28.2458H41.2499V26.6781L52.8939 15.0341C53.138 14.79 53.138 14.3943 52.8939 14.1501C52.6498 13.9061 52.2542 13.9061 52.01 14.1501L41.2499 24.9103V4.75027H55.3754V28.2458ZM68.2501 30.6402C68.2501 30.7005 68.2011 30.7496 68.1408 30.7496H63.1096C63.0493 30.7496 63.0002 30.7005 63.0002 30.6402V24.4998H68.2501V30.6402ZM64.4928 23.2498H63.9335C63.7653 22.433 63.5343 21.6352 63.2466 20.8782C63.9083 21.4808 64.3594 22.3318 64.4928 23.2498ZM63.7536 17.189C64.9259 18.0301 65.6574 19.397 65.68 20.8626C65.5815 21.228 65.5029 21.5996 65.4454 21.9759C65.2861 21.5538 65.0744 21.1539 64.8172 20.7887C64.5946 19.549 64.2389 18.344 63.7536 17.189ZM66.7269 18.3564C66.6501 18.488 66.5771 18.6216 66.5063 18.7565C66.4173 18.5357 66.3149 18.3209 66.2001 18.113C66.2016 18.0989 66.2034 18.0848 66.204 18.0704C66.2063 18.0141 66.2582 16.9684 66.9609 16.1646C66.8008 16.8513 66.7184 17.5565 66.7184 18.2583C66.7184 18.2917 66.7218 18.3243 66.7269 18.3564ZM68.1218 18.4836C67.6709 20.0216 67.3751 21.7213 67.3149 23.2498H66.5831C66.6335 21.5338 67.1784 19.8807 68.1218 18.4836ZM68.8751 23.2498H68.566C68.6724 20.7998 69.4434 17.8078 70.443 16.0653C70.4515 16.0505 70.4613 16.0314 70.4685 16.016C70.5898 15.7577 70.5208 15.45 70.3008 15.2683C70.0807 15.0866 69.7656 15.077 69.5349 15.2449C69.0472 15.6 68.596 15.9954 68.1844 16.4245C68.3061 15.9096 68.4777 15.4068 68.6979 14.9286C68.8088 14.6875 68.7554 14.4026 68.5647 14.218C68.3739 14.0335 68.0874 13.9895 67.8501 14.1085L67.1789 14.4448C66.0267 15.0228 65.4716 15.9992 65.2037 16.7877C64.7439 16.328 64.2054 15.9411 63.6029 15.6531L62.6259 15.1862C62.3809 15.0691 62.0884 15.1236 61.902 15.321C61.7156 15.5183 61.6779 15.8135 61.8088 16.0514L61.8741 16.17C62.4235 17.1685 62.8606 18.2175 63.1824 19.3036C63.1016 19.2586 63.0198 19.2155 62.9361 19.1755L62.1168 18.784C61.8718 18.667 61.5792 18.7214 61.3929 18.9188C61.2065 19.1163 61.1689 19.4115 61.2999 19.6493L61.3545 19.7486C61.9285 20.792 62.3726 21.9911 62.655 23.2496H62.3751C62.0299 23.2496 61.7501 23.5295 61.7501 23.8746V28.2456H56.6252V4.75027H70.7498V28.2458H69.4999V23.8748C69.5001 23.5296 69.2202 23.2498 68.8751 23.2498Z" fill="#C7BEBD"/>
<path d="M46.5757 30.9327C46.4588 30.8164 46.2981 30.7495 46.1338 30.7495C45.9694 30.7495 45.8082 30.8164 45.6919 30.9327C45.575 31.0489 45.5088 31.2102 45.5088 31.3745C45.5088 31.5389 45.575 31.7002 45.6919 31.8164C45.8082 31.9326 45.9694 31.9995 46.1338 31.9995C46.2982 31.9995 46.4594 31.9327 46.5757 31.8164C46.6919 31.7002 46.7588 31.5389 46.7588 31.3745C46.7588 31.2102 46.6919 31.0489 46.5757 30.9327Z" fill="#C7BEBD"/>
<path d="M96.0001 2.45294C88.5297 2.45294 82.5088 8.5296 82.5088 15.9442C82.5088 23.3589 88.5854 29.4913 96.0001 29.4913C103.47 29.4913 109.547 23.4146 109.547 16C109.547 8.58535 103.47 2.45294 96.0001 2.45294ZM95.4426 28.3763C89.0314 28.0976 83.9025 22.9129 83.6238 16.5575H95.4426V28.3763ZM95.4426 15.3867H83.6238C83.9025 9.03134 89.0314 3.90242 95.4426 3.56793V15.3867ZM96.5576 3.56793C102.969 3.90242 108.098 9.03134 108.376 15.4425H96.5576V3.56793ZM96.5576 28.3763V16.5575H108.376C108.098 22.9129 102.969 28.0976 96.5576 28.3763Z" fill="#C7BEBD"/>
<path d="M96 0C87.1916 0 80 7.13589 80 16C80 24.8084 87.1916 32 96 32C104.808 32 112 24.8084 112 16C112 7.19164 104.808 0 96 0ZM96 30.885C87.8049 30.885 81.115 24.1951 81.115 16C81.115 7.74913 87.8049 1.11498 96 1.11498C104.195 1.11498 110.885 7.80488 110.885 16C110.885 24.1951 104.195 30.885 96 30.885Z" fill="#C7BEBD"/>
<g clip-path="url(#clip0)">
<path d="M265.046 5.65666C264.96 5.57071 256.881 -2.37956 246.954 5.61368C246.868 5.69963 246.782 5.82855 246.782 5.95748V29.6794C246.782 29.9372 246.954 30.1091 247.212 30.1091H264.745C265.003 30.1091 265.175 29.9372 265.175 29.6794V5.95748C265.175 5.82855 265.132 5.7426 265.046 5.65666ZM255.549 29.2496H247.641V21.4283H255.549V29.2496ZM255.549 20.5688H247.641V12.5326H255.549V20.5688ZM255.549 11.6731H247.641V6.17235C250.521 3.8947 253.228 3.03522 255.549 2.90629V11.6731ZM264.316 29.2496H256.408V21.4283H264.316V29.2496ZM264.316 20.5688H256.408V12.5326H264.316V20.5688ZM264.316 11.6731H256.408V2.90629C260.663 3.03522 263.671 5.57071 264.316 6.17235V11.6731Z" fill="#C7BEBD"/>
<path d="M267.023 4.36702C266.937 4.28108 257.053 -5.38817 245.02 4.32405C244.934 4.41 244.848 4.53892 244.848 4.66785V31.5698C244.848 31.8277 245.02 31.9996 245.278 31.9996H266.722C266.98 31.9996 267.152 31.8277 267.152 31.5698V4.66785C267.152 4.53892 267.109 4.45297 267.023 4.36702ZM266.292 31.1401H245.708V4.88272C256.494 -3.66919 265.089 3.76538 266.292 4.88272V31.1401Z" fill="#C7BEBD"/>
</g>
<path d="M31.6703 2.17436C31.6058 2.14749 31.5366 2.13355 31.4667 2.13336H0.533312C0.23925 2.13442 0.001125 2.37255 0 2.66667V29.3334C0.0010625 29.6275 0.23925 29.8656 0.533312 29.8667H31.4666C31.7607 29.8657 31.9989 29.6275 31.9999 29.3334V2.66667C31.9993 2.45111 31.8693 2.25711 31.6703 2.17436ZM30.1792 3.19999L29.1125 4.26667H2.8875L1.82081 3.19999H30.1792ZM28.8 5.3333V26.6666H3.2V5.3333H28.8ZM1.06669 3.95417L2.13337 5.02086V26.9792L1.06669 28.0459V3.95417ZM1.82081 28.8L2.8875 27.7333H29.1125L30.1792 28.8H1.82081ZM30.9333 28.0458L29.8666 26.9791V5.0208L30.9333 3.95411V28.0458Z" fill="#C7BEBD"/>
<path d="M4.80004 25.6H14.9333C15.0748 25.6 15.2105 25.5439 15.3105 25.4438C15.4105 25.3438 15.4667 25.2081 15.4667 25.0667V6.93328C15.4667 6.79178 15.4106 6.65609 15.3105 6.55609C15.2105 6.45609 15.0748 6.3999 14.9333 6.39996H4.80004C4.65854 6.3999 4.52285 6.45603 4.42285 6.55609C4.32285 6.65615 4.26666 6.79184 4.26672 6.93328V25.0666C4.26666 25.2081 4.32279 25.3438 4.42285 25.4438C4.52291 25.5438 4.65854 25.6 4.80004 25.6ZM5.33335 7.46665H14.4V24.5333H5.33335V7.46665Z" fill="#C7BEBD"/>
<path d="M17.0668 25.6H27.2001C27.3416 25.6 27.4773 25.5439 27.5773 25.4438C27.6773 25.3438 27.7334 25.2081 27.7334 25.0667V6.93328C27.7334 6.79178 27.6773 6.65609 27.5773 6.55609C27.4772 6.45603 27.3415 6.3999 27.2001 6.39996H17.0668C16.9253 6.3999 16.7896 6.45603 16.6896 6.55609C16.5896 6.65615 16.5334 6.79184 16.5334 6.93328V25.0666C16.5334 25.2081 16.5895 25.3438 16.6896 25.4438C16.7896 25.5438 16.9253 25.6 17.0668 25.6ZM17.6001 7.46665H26.6668V24.5333H17.6001V7.46665Z" fill="#C7BEBD"/>
<path d="M6.93325 10.6667C7.07475 10.6668 7.21043 10.6106 7.31031 10.5104L8.377 9.44372C8.58206 9.2349 8.5805 8.8999 8.37362 8.69297C8.16675 8.48603 7.83168 8.48453 7.62287 8.68959L6.55618 9.75622C6.40368 9.90872 6.35812 10.1381 6.44062 10.3373C6.52318 10.5367 6.71756 10.6666 6.93325 10.6667Z" fill="#C7BEBD"/>
<path d="M10.2896 9.22289L6.55618 12.9562C6.40368 13.1087 6.35812 13.3381 6.44062 13.5373C6.52312 13.7366 6.71756 13.8665 6.93325 13.8666C7.07475 13.8668 7.21043 13.8105 7.31031 13.7103L11.0436 9.97701C11.2487 9.7682 11.2471 9.4332 11.0402 9.22626C10.8334 9.01932 10.4983 9.01782 10.2896 9.22289Z" fill="#C7BEBD"/>
<path d="M19.2 10.6667C19.3415 10.6668 19.4772 10.6106 19.577 10.5104L20.6437 9.44372C20.8488 9.2349 20.8472 8.8999 20.6403 8.69297C20.4335 8.48603 20.0984 8.48453 19.8896 8.68959L18.8229 9.75622C18.6704 9.90872 18.6248 10.1381 18.7073 10.3373C18.7898 10.5367 18.9843 10.6666 19.2 10.6667Z" fill="#C7BEBD"/>
<path d="M22.5562 9.22289L18.8229 12.9562C18.6704 13.1087 18.6248 13.3381 18.7073 13.5373C18.7899 13.7366 18.9843 13.8665 19.2 13.8666C19.3415 13.8668 19.4772 13.8105 19.577 13.7103L23.3104 9.97702C23.5154 9.76821 23.5139 9.43321 23.307 9.22627C23.1 9.01939 22.765 9.01783 22.5562 9.22289Z" fill="#C7BEBD"/>
<g clip-path="url(#clip1)">
<path d="M174.67 3.75882H166.714C166.231 3.75882 165.839 4.15138 165.839 4.63388V14.5706C165.839 15.0531 166.231 15.4457 166.714 15.4457H174.67C175.152 15.4457 175.545 15.0531 175.545 14.5706V4.63388C175.545 4.15138 175.152 3.75882 174.67 3.75882ZM174.634 14.5348H166.749V4.66963H174.634V14.5348Z" fill="#C7BEBD"/>
<path d="M174.67 16.4774H166.714C166.231 16.4774 165.839 16.87 165.839 17.3525V27.2892C165.839 27.7717 166.231 28.1642 166.714 28.1642H174.67C175.152 28.1642 175.545 27.7717 175.545 27.2892V17.3525C175.545 16.87 175.152 16.4774 174.67 16.4774ZM174.634 27.2535H166.749V17.3883H174.634V27.2535Z" fill="#C7BEBD"/>
<path d="M185.286 3.75882H177.33C176.848 3.75882 176.455 4.15138 176.455 4.63388V14.5706C176.455 15.0531 176.848 15.4457 177.33 15.4457H185.286C185.769 15.4457 186.161 15.0531 186.161 14.5706V4.63388C186.161 4.15138 185.769 3.75882 185.286 3.75882ZM185.251 14.5348H177.366V4.66963H185.251V14.5348Z" fill="#C7BEBD"/>
<path d="M185.286 16.4774H177.33C176.848 16.4774 176.455 16.87 176.455 17.3525V27.2892C176.455 27.7717 176.848 28.1642 177.33 28.1642H185.286C185.769 28.1642 186.161 27.7717 186.161 27.2892V17.3525C186.161 16.87 185.769 16.4774 185.286 16.4774ZM185.251 27.2535H177.366V17.3883H185.251V27.2535Z" fill="#C7BEBD"/>
<path d="M190.845 28.7249H189.92V6.88053C189.92 6.62902 189.716 6.42509 189.465 6.42509C189.213 6.42509 189.01 6.62896 189.01 6.88053V28.7249H187.923V2.97946C187.923 2.43809 187.482 1.99765 186.941 1.99765H165.059C164.518 1.99765 164.077 2.43809 164.077 2.97946V28.7249H162.991V24.2348C162.991 23.9833 162.787 23.7793 162.535 23.7793C162.284 23.7793 162.08 23.9832 162.08 24.2348V28.7249H161.155C160.652 28.7249 160.242 29.1344 160.242 29.6376V31.0873C160.242 31.5906 160.652 32 161.155 32H190.845C191.349 32 191.758 31.5905 191.758 31.0873V29.6376C191.758 29.1343 191.349 28.7249 190.845 28.7249ZM164.988 2.97946C164.988 2.94034 165.02 2.90846 165.059 2.90846H186.941C186.98 2.90846 187.012 2.94028 187.012 2.97946V28.7249H164.988V2.97946ZM190.846 31.0891C190.846 31.0891 190.846 31.0892 190.845 31.0892L161.153 31.0873L161.155 29.6357L190.847 29.6376L190.846 31.0891Z" fill="#C7BEBD"/>
<path d="M189.061 0H162.939C162.465 0 162.08 0.385437 162.08 0.859312V22.0728C162.08 22.3243 162.284 22.5282 162.535 22.5282C162.787 22.5282 162.991 22.3243 162.991 22.0728V0.910812H189.01V4.71344C189.01 4.96494 189.213 5.16888 189.465 5.16888C189.717 5.16888 189.92 4.965 189.92 4.71344V0.859312C189.92 0.385437 189.535 0 189.061 0Z" fill="#C7BEBD"/>
</g>
<defs>
<clipPath id="clip0">
<rect width="32" height="32" fill="white" transform="translate(240)"/>
</clipPath>
<clipPath id="clip1">
<rect width="32" height="32" fill="white" transform="translate(160)"/>
</clipPath>
</defs>
</svg>
