<svg width="32" height="32" viewBox="0 0 32 32" fill="none" xmlns="http://www.w3.org/2000/svg">
<g clip-path="url(#clip0)">
<path d="M14.5303 24.3953C14.2864 24.6389 14.2864 25.0347 14.5303 25.2788C14.7747 25.5227 15.1702 25.5227 15.4139 25.2788C15.6583 25.0347 15.6583 24.6389 15.4139 24.3953C15.1702 24.1509 14.7747 24.1509 14.5303 24.3953V24.3953Z" fill="#161715"/>
<path d="M30.5583 23.3097L25.8132 19.2748C25.7912 19.2562 25.768 19.2391 25.7438 19.2237C24.499 18.4313 22.9006 18.6068 21.8569 19.6503L19.2697 22.2372C19.0905 22.4166 18.8232 22.4696 18.5888 22.3729C15.6674 21.1644 13.2675 19.3451 11.4558 16.9659C10.0742 15.1517 9.57611 13.7101 9.51044 13.507C9.50263 13.4635 9.49018 13.4203 9.4726 13.378C9.37567 13.1437 9.42865 12.8768 9.60834 12.6976L12.1953 10.11C13.239 9.06628 13.4142 7.46789 12.6218 6.22302C12.6154 6.21301 12.6088 6.20324 12.602 6.19348L9.17523 1.43152C8.09711 -0.241088 5.74872 -0.493774 4.3393 0.915405L3.82123 1.43347L3.82001 1.43469L1.9704 3.2843C-0.235166 5.49011 -0.596006 8.80456 0.927187 12.87C2.23187 16.3524 4.84369 20.1637 8.28144 23.6014C11.8005 27.1205 15.7148 29.7806 19.3032 31.0919C22.8549 32.3895 26.633 32.5494 29.3071 29.8751L31.0515 28.131C32.4545 26.7276 32.2097 24.3946 30.5583 23.3097ZM25.0388 20.2567L29.7797 24.2882C29.8015 24.3068 29.8246 24.3238 29.8488 24.3392C30.8615 24.984 31.0148 26.4 30.1674 27.2472L30.038 27.3768L21.9518 21.3226L22.7407 20.534C23.3571 19.9173 24.2966 19.8058 25.0388 20.2567ZM8.13104 2.11829C8.13739 2.1283 8.14398 2.13831 8.15082 2.14783L11.5761 6.90808C12.0414 7.65295 11.9338 8.60388 11.3115 9.22619L10.5471 9.99084L5.07636 1.94592L5.22309 1.79919C6.07392 0.948364 7.48871 1.10925 8.13104 2.11829ZM19.7319 29.9178C16.311 28.6678 12.5583 26.1107 9.16522 22.7176C5.85077 19.4034 3.34076 15.7504 2.09735 12.4315C1.164 9.9403 0.537783 6.48449 2.85419 4.16833L4.1767 2.84558L9.6474 10.8905L8.72479 11.8136C8.19989 12.3375 8.03485 13.1129 8.29682 13.8033C8.49408 14.6129 9.4018 16.2933 10.3176 17.5316C11.6652 19.3539 14.1113 21.8732 18.111 23.5279C18.8139 23.8187 19.6154 23.659 20.1535 23.1212L21.059 22.2154L29.1452 28.2696L28.4233 28.9913C25.9401 31.4747 22.3264 30.8658 19.7319 29.9178Z" fill="#161715"/>
<path d="M13.3574 22.9031C12.6972 22.3242 11.5554 21.3286 10.9541 20.71C9.47947 19.1946 7.93235 17.3577 7.01243 16.0305C6.8159 15.7468 6.4265 15.676 6.1428 15.8728C5.85911 16.0693 5.78856 16.4587 5.98509 16.7424C7.14524 18.4163 8.84983 20.3396 10.0581 21.5813C10.6928 22.2346 11.8445 23.239 12.5332 23.8428C12.7922 24.0698 13.187 24.0449 13.4153 23.7849C13.6428 23.5256 13.6169 23.1306 13.3574 22.9031Z" fill="#161715"/>
</g>
<defs>
<clipPath id="clip0">
<rect width="32" height="32" fill="white"/>
</clipPath>
</defs>
</svg>
